M48
; DRILL file {KiCad 7.0.5} date Sun Jul  9 21:36:03 2023
; FORMAT={-:-/ absolute / inch / decimal}
; #@! TF.CreationDate,2023-07-09T21:36:03-04:00
; #@! TF.GenerationSoftware,Kicad,Pcbnew,7.0.5
; #@! TF.FileFunction,Plated,1,2,PTH
FMAT,2
INCH
; #@! TA.AperFunction,Plated,PTH,ComponentDrill
T1C0.0315
; #@! TA.AperFunction,Plated,PTH,ComponentDrill
T2C0.0354
; #@! TA.AperFunction,Plated,PTH,ComponentDrill
T3C0.0610
%
G90
G05
T1
X5.163Y-6.585
X5.563Y-6.585
X5.707Y-3.055
X5.707Y-3.455
X5.707Y-5.996
X5.707Y-6.396
X5.708Y-5.015
X5.708Y-5.415
X5.709Y-4.036
X5.709Y-4.436
T2
X5.7248Y-4.72
X5.7248Y-6.68
X5.725Y-2.76
X5.725Y-3.74
X5.725Y-5.7
X5.8248Y-4.72
X5.8248Y-6.68
X5.825Y-2.76
X5.825Y-3.74
X5.825Y-5.7
T3
X5.335Y-5.21
X5.335Y-6.3
X5.34Y-3.215
X5.34Y-6.055
X5.345Y-4.21
X5.56Y-6.885
T0
M30
