%TF.GenerationSoftware,KiCad,Pcbnew,7.0.5*%
%TF.CreationDate,2023-07-09T21:28:36-04:00*%
%TF.ProjectId,Guitar_Hero_PCB_Switches,47756974-6172-45f4-9865-726f5f504342,v01*%
%TF.SameCoordinates,Original*%
%TF.FileFunction,Copper,L2,Bot*%
%TF.FilePolarity,Positive*%
%FSLAX46Y46*%
G04 Gerber Fmt 4.6, Leading zero omitted, Abs format (unit mm)*
G04 Created by KiCad (PCBNEW 7.0.5) date 2023-07-09 21:28:36*
%MOMM*%
%LPD*%
G01*
G04 APERTURE LIST*
G04 Aperture macros list*
%AMRoundRect*
0 Rectangle with rounded corners*
0 $1 Rounding radius*
0 $2 $3 $4 $5 $6 $7 $8 $9 X,Y pos of 4 corners*
0 Add a 4 corners polygon primitive as box body*
4,1,4,$2,$3,$4,$5,$6,$7,$8,$9,$2,$3,0*
0 Add four circle primitives for the rounded corners*
1,1,$1+$1,$2,$3*
1,1,$1+$1,$4,$5*
1,1,$1+$1,$6,$7*
1,1,$1+$1,$8,$9*
0 Add four rect primitives between the rounded corners*
20,1,$1+$1,$2,$3,$4,$5,0*
20,1,$1+$1,$4,$5,$6,$7,0*
20,1,$1+$1,$6,$7,$8,$9,0*
20,1,$1+$1,$8,$9,$2,$3,0*%
G04 Aperture macros list end*
%TA.AperFunction,ComponentPad*%
%ADD10C,2.032000*%
%TD*%
%TA.AperFunction,ComponentPad*%
%ADD11RoundRect,0.249999X-1.025001X-1.025001X1.025001X-1.025001X1.025001X1.025001X-1.025001X1.025001X0*%
%TD*%
%TA.AperFunction,Conductor*%
%ADD12C,0.254000*%
%TD*%
G04 APERTURE END LIST*
D10*
%TO.P,SW1,1,A*%
%TO.N,Net-(J7-Pin_1)*%
X135128000Y-75946000D03*
%TO.P,SW1,2,B*%
%TO.N,Net-(J12-Pin_1)*%
X130128000Y-73846000D03*
%TD*%
%TO.P,SW2,1,A*%
%TO.N,Net-(J7-Pin_1)*%
X135167000Y-100778000D03*
%TO.P,SW2,2,B*%
%TO.N,Net-(J11-Pin_1)*%
X130167000Y-98678000D03*
%TD*%
D11*
%TO.P,J12,1,Pin_1*%
%TO.N,Net-(J12-Pin_1)*%
X130175000Y-82423000D03*
%TD*%
%TO.P,J7,1,Pin_1*%
%TO.N,Net-(J7-Pin_1)*%
X146812000Y-175387000D03*
%TD*%
%TO.P,J9,1,Pin_1*%
%TO.N,Net-(J9-Pin_1)*%
X135255000Y-157099000D03*
%TD*%
%TO.P,J10,1,Pin_1*%
%TO.N,Net-(J10-Pin_1)*%
X130175000Y-131445000D03*
%TD*%
D10*
%TO.P,SW4,1,A*%
%TO.N,Net-(J7-Pin_1)*%
X135167000Y-150553000D03*
%TO.P,SW4,2,B*%
%TO.N,Net-(J9-Pin_1)*%
X130167000Y-148453000D03*
%TD*%
D11*
%TO.P,J11,1,Pin_1*%
%TO.N,Net-(J11-Pin_1)*%
X130175000Y-107315000D03*
%TD*%
D10*
%TO.P,SW3,1,A*%
%TO.N,Net-(J7-Pin_1)*%
X135167000Y-125670000D03*
%TO.P,SW3,2,B*%
%TO.N,Net-(J10-Pin_1)*%
X130167000Y-123570000D03*
%TD*%
%TO.P,SW5,1,A*%
%TO.N,Net-(J7-Pin_1)*%
X135167000Y-175445000D03*
%TO.P,SW5,2,B*%
%TO.N,Net-(J8-Pin_1)*%
X130167000Y-173345000D03*
%TD*%
D11*
%TO.P,J8,1,Pin_1*%
%TO.N,Net-(J8-Pin_1)*%
X130175000Y-157099000D03*
%TD*%
D12*
%TO.N,Net-(J7-Pin_1)*%
X138404600Y-104013000D02*
X138404600Y-128905000D01*
X135128000Y-75946000D02*
X136906000Y-75946000D01*
X138402000Y-104013000D02*
X138404600Y-104013000D01*
X136906000Y-75946000D02*
X138404600Y-77444600D01*
X138385600Y-153771600D02*
X138404600Y-153771600D01*
X138404600Y-128905000D02*
X138404600Y-153771600D01*
X138404600Y-77444600D02*
X138404600Y-104013000D01*
X138404600Y-172207400D02*
X141609600Y-175412400D01*
X135167000Y-175445000D02*
X138404600Y-172207400D01*
X141609600Y-175412400D02*
X146786600Y-175412400D01*
X146786600Y-175412400D02*
X146812000Y-175387000D01*
X138404600Y-153771600D02*
X138404600Y-171856400D01*
X138404600Y-172207400D02*
X138404600Y-171856400D01*
X135167000Y-100778000D02*
X138402000Y-104013000D01*
X138402000Y-128905000D02*
X138404600Y-128905000D01*
X135167000Y-150553000D02*
X138385600Y-153771600D01*
X135167000Y-125670000D02*
X138402000Y-128905000D01*
%TD*%
M02*
