%TF.GenerationSoftware,KiCad,Pcbnew,7.0.5*%
%TF.CreationDate,2023-07-09T21:35:34-04:00*%
%TF.ProjectId,Guitar_Hero_PCB_LEDs,47756974-6172-45f4-9865-726f5f504342,v01*%
%TF.SameCoordinates,Original*%
%TF.FileFunction,Legend,Top*%
%TF.FilePolarity,Positive*%
%FSLAX46Y46*%
G04 Gerber Fmt 4.6, Leading zero omitted, Abs format (unit mm)*
G04 Created by KiCad (PCBNEW 7.0.5) date 2023-07-09 21:35:34*
%MOMM*%
%LPD*%
G01*
G04 APERTURE LIST*
%ADD10C,0.150000*%
%ADD11C,0.120000*%
G04 APERTURE END LIST*
D10*
%TO.C,J6*%
X140890666Y-171863819D02*
X140890666Y-172578104D01*
X140890666Y-172578104D02*
X140843047Y-172720961D01*
X140843047Y-172720961D02*
X140747809Y-172816200D01*
X140747809Y-172816200D02*
X140604952Y-172863819D01*
X140604952Y-172863819D02*
X140509714Y-172863819D01*
X141795428Y-171863819D02*
X141604952Y-171863819D01*
X141604952Y-171863819D02*
X141509714Y-171911438D01*
X141509714Y-171911438D02*
X141462095Y-171959057D01*
X141462095Y-171959057D02*
X141366857Y-172101914D01*
X141366857Y-172101914D02*
X141319238Y-172292390D01*
X141319238Y-172292390D02*
X141319238Y-172673342D01*
X141319238Y-172673342D02*
X141366857Y-172768580D01*
X141366857Y-172768580D02*
X141414476Y-172816200D01*
X141414476Y-172816200D02*
X141509714Y-172863819D01*
X141509714Y-172863819D02*
X141700190Y-172863819D01*
X141700190Y-172863819D02*
X141795428Y-172816200D01*
X141795428Y-172816200D02*
X141843047Y-172768580D01*
X141843047Y-172768580D02*
X141890666Y-172673342D01*
X141890666Y-172673342D02*
X141890666Y-172435247D01*
X141890666Y-172435247D02*
X141843047Y-172340009D01*
X141843047Y-172340009D02*
X141795428Y-172292390D01*
X141795428Y-172292390D02*
X141700190Y-172244771D01*
X141700190Y-172244771D02*
X141509714Y-172244771D01*
X141509714Y-172244771D02*
X141414476Y-172292390D01*
X141414476Y-172292390D02*
X141366857Y-172340009D01*
X141366857Y-172340009D02*
X141319238Y-172435247D01*
%TO.C,R4*%
X147782619Y-157545066D02*
X147306428Y-157878399D01*
X147782619Y-158116494D02*
X146782619Y-158116494D01*
X146782619Y-158116494D02*
X146782619Y-157735542D01*
X146782619Y-157735542D02*
X146830238Y-157640304D01*
X146830238Y-157640304D02*
X146877857Y-157592685D01*
X146877857Y-157592685D02*
X146973095Y-157545066D01*
X146973095Y-157545066D02*
X147115952Y-157545066D01*
X147115952Y-157545066D02*
X147211190Y-157592685D01*
X147211190Y-157592685D02*
X147258809Y-157640304D01*
X147258809Y-157640304D02*
X147306428Y-157735542D01*
X147306428Y-157735542D02*
X147306428Y-158116494D01*
X147115952Y-156687923D02*
X147782619Y-156687923D01*
X146735000Y-156926018D02*
X147449285Y-157164113D01*
X147449285Y-157164113D02*
X147449285Y-156545066D01*
%TO.C,R1*%
X147782619Y-82843666D02*
X147306428Y-83176999D01*
X147782619Y-83415094D02*
X146782619Y-83415094D01*
X146782619Y-83415094D02*
X146782619Y-83034142D01*
X146782619Y-83034142D02*
X146830238Y-82938904D01*
X146830238Y-82938904D02*
X146877857Y-82891285D01*
X146877857Y-82891285D02*
X146973095Y-82843666D01*
X146973095Y-82843666D02*
X147115952Y-82843666D01*
X147115952Y-82843666D02*
X147211190Y-82891285D01*
X147211190Y-82891285D02*
X147258809Y-82938904D01*
X147258809Y-82938904D02*
X147306428Y-83034142D01*
X147306428Y-83034142D02*
X147306428Y-83415094D01*
X147782619Y-81891285D02*
X147782619Y-82462713D01*
X147782619Y-82176999D02*
X146782619Y-82176999D01*
X146782619Y-82176999D02*
X146925476Y-82272237D01*
X146925476Y-82272237D02*
X147020714Y-82367475D01*
X147020714Y-82367475D02*
X147068333Y-82462713D01*
%TO.C,D1*%
X145946905Y-66598819D02*
X145946905Y-65598819D01*
X145946905Y-65598819D02*
X146185000Y-65598819D01*
X146185000Y-65598819D02*
X146327857Y-65646438D01*
X146327857Y-65646438D02*
X146423095Y-65741676D01*
X146423095Y-65741676D02*
X146470714Y-65836914D01*
X146470714Y-65836914D02*
X146518333Y-66027390D01*
X146518333Y-66027390D02*
X146518333Y-66170247D01*
X146518333Y-66170247D02*
X146470714Y-66360723D01*
X146470714Y-66360723D02*
X146423095Y-66455961D01*
X146423095Y-66455961D02*
X146327857Y-66551200D01*
X146327857Y-66551200D02*
X146185000Y-66598819D01*
X146185000Y-66598819D02*
X145946905Y-66598819D01*
X147470714Y-66598819D02*
X146899286Y-66598819D01*
X147185000Y-66598819D02*
X147185000Y-65598819D01*
X147185000Y-65598819D02*
X147089762Y-65741676D01*
X147089762Y-65741676D02*
X146994524Y-65836914D01*
X146994524Y-65836914D02*
X146899286Y-65884533D01*
%TO.C,J2*%
X135302666Y-150781819D02*
X135302666Y-151496104D01*
X135302666Y-151496104D02*
X135255047Y-151638961D01*
X135255047Y-151638961D02*
X135159809Y-151734200D01*
X135159809Y-151734200D02*
X135016952Y-151781819D01*
X135016952Y-151781819D02*
X134921714Y-151781819D01*
X135731238Y-150877057D02*
X135778857Y-150829438D01*
X135778857Y-150829438D02*
X135874095Y-150781819D01*
X135874095Y-150781819D02*
X136112190Y-150781819D01*
X136112190Y-150781819D02*
X136207428Y-150829438D01*
X136207428Y-150829438D02*
X136255047Y-150877057D01*
X136255047Y-150877057D02*
X136302666Y-150972295D01*
X136302666Y-150972295D02*
X136302666Y-151067533D01*
X136302666Y-151067533D02*
X136255047Y-151210390D01*
X136255047Y-151210390D02*
X135683619Y-151781819D01*
X135683619Y-151781819D02*
X136302666Y-151781819D01*
%TO.C,D3*%
X145941905Y-116382819D02*
X145941905Y-115382819D01*
X145941905Y-115382819D02*
X146180000Y-115382819D01*
X146180000Y-115382819D02*
X146322857Y-115430438D01*
X146322857Y-115430438D02*
X146418095Y-115525676D01*
X146418095Y-115525676D02*
X146465714Y-115620914D01*
X146465714Y-115620914D02*
X146513333Y-115811390D01*
X146513333Y-115811390D02*
X146513333Y-115954247D01*
X146513333Y-115954247D02*
X146465714Y-116144723D01*
X146465714Y-116144723D02*
X146418095Y-116239961D01*
X146418095Y-116239961D02*
X146322857Y-116335200D01*
X146322857Y-116335200D02*
X146180000Y-116382819D01*
X146180000Y-116382819D02*
X145941905Y-116382819D01*
X146846667Y-115382819D02*
X147465714Y-115382819D01*
X147465714Y-115382819D02*
X147132381Y-115763771D01*
X147132381Y-115763771D02*
X147275238Y-115763771D01*
X147275238Y-115763771D02*
X147370476Y-115811390D01*
X147370476Y-115811390D02*
X147418095Y-115859009D01*
X147418095Y-115859009D02*
X147465714Y-115954247D01*
X147465714Y-115954247D02*
X147465714Y-116192342D01*
X147465714Y-116192342D02*
X147418095Y-116287580D01*
X147418095Y-116287580D02*
X147370476Y-116335200D01*
X147370476Y-116335200D02*
X147275238Y-116382819D01*
X147275238Y-116382819D02*
X146989524Y-116382819D01*
X146989524Y-116382819D02*
X146894286Y-116335200D01*
X146894286Y-116335200D02*
X146846667Y-116287580D01*
%TO.C,R5*%
X136053533Y-170083819D02*
X135720200Y-169607628D01*
X135482105Y-170083819D02*
X135482105Y-169083819D01*
X135482105Y-169083819D02*
X135863057Y-169083819D01*
X135863057Y-169083819D02*
X135958295Y-169131438D01*
X135958295Y-169131438D02*
X136005914Y-169179057D01*
X136005914Y-169179057D02*
X136053533Y-169274295D01*
X136053533Y-169274295D02*
X136053533Y-169417152D01*
X136053533Y-169417152D02*
X136005914Y-169512390D01*
X136005914Y-169512390D02*
X135958295Y-169560009D01*
X135958295Y-169560009D02*
X135863057Y-169607628D01*
X135863057Y-169607628D02*
X135482105Y-169607628D01*
X136958295Y-169083819D02*
X136482105Y-169083819D01*
X136482105Y-169083819D02*
X136434486Y-169560009D01*
X136434486Y-169560009D02*
X136482105Y-169512390D01*
X136482105Y-169512390D02*
X136577343Y-169464771D01*
X136577343Y-169464771D02*
X136815438Y-169464771D01*
X136815438Y-169464771D02*
X136910676Y-169512390D01*
X136910676Y-169512390D02*
X136958295Y-169560009D01*
X136958295Y-169560009D02*
X137005914Y-169655247D01*
X137005914Y-169655247D02*
X137005914Y-169893342D01*
X137005914Y-169893342D02*
X136958295Y-169988580D01*
X136958295Y-169988580D02*
X136910676Y-170036200D01*
X136910676Y-170036200D02*
X136815438Y-170083819D01*
X136815438Y-170083819D02*
X136577343Y-170083819D01*
X136577343Y-170083819D02*
X136482105Y-170036200D01*
X136482105Y-170036200D02*
X136434486Y-169988580D01*
%TO.C,D4*%
X145946905Y-141274819D02*
X145946905Y-140274819D01*
X145946905Y-140274819D02*
X146185000Y-140274819D01*
X146185000Y-140274819D02*
X146327857Y-140322438D01*
X146327857Y-140322438D02*
X146423095Y-140417676D01*
X146423095Y-140417676D02*
X146470714Y-140512914D01*
X146470714Y-140512914D02*
X146518333Y-140703390D01*
X146518333Y-140703390D02*
X146518333Y-140846247D01*
X146518333Y-140846247D02*
X146470714Y-141036723D01*
X146470714Y-141036723D02*
X146423095Y-141131961D01*
X146423095Y-141131961D02*
X146327857Y-141227200D01*
X146327857Y-141227200D02*
X146185000Y-141274819D01*
X146185000Y-141274819D02*
X145946905Y-141274819D01*
X147375476Y-140608152D02*
X147375476Y-141274819D01*
X147137381Y-140227200D02*
X146899286Y-140941485D01*
X146899286Y-140941485D02*
X147518333Y-140941485D01*
%TO.C,J3*%
X135175666Y-129318819D02*
X135175666Y-130033104D01*
X135175666Y-130033104D02*
X135128047Y-130175961D01*
X135128047Y-130175961D02*
X135032809Y-130271200D01*
X135032809Y-130271200D02*
X134889952Y-130318819D01*
X134889952Y-130318819D02*
X134794714Y-130318819D01*
X135556619Y-129318819D02*
X136175666Y-129318819D01*
X136175666Y-129318819D02*
X135842333Y-129699771D01*
X135842333Y-129699771D02*
X135985190Y-129699771D01*
X135985190Y-129699771D02*
X136080428Y-129747390D01*
X136080428Y-129747390D02*
X136128047Y-129795009D01*
X136128047Y-129795009D02*
X136175666Y-129890247D01*
X136175666Y-129890247D02*
X136175666Y-130128342D01*
X136175666Y-130128342D02*
X136128047Y-130223580D01*
X136128047Y-130223580D02*
X136080428Y-130271200D01*
X136080428Y-130271200D02*
X135985190Y-130318819D01*
X135985190Y-130318819D02*
X135699476Y-130318819D01*
X135699476Y-130318819D02*
X135604238Y-130271200D01*
X135604238Y-130271200D02*
X135556619Y-130223580D01*
%TO.C,R3*%
X147808019Y-132627666D02*
X147331828Y-132960999D01*
X147808019Y-133199094D02*
X146808019Y-133199094D01*
X146808019Y-133199094D02*
X146808019Y-132818142D01*
X146808019Y-132818142D02*
X146855638Y-132722904D01*
X146855638Y-132722904D02*
X146903257Y-132675285D01*
X146903257Y-132675285D02*
X146998495Y-132627666D01*
X146998495Y-132627666D02*
X147141352Y-132627666D01*
X147141352Y-132627666D02*
X147236590Y-132675285D01*
X147236590Y-132675285D02*
X147284209Y-132722904D01*
X147284209Y-132722904D02*
X147331828Y-132818142D01*
X147331828Y-132818142D02*
X147331828Y-133199094D01*
X146808019Y-132294332D02*
X146808019Y-131675285D01*
X146808019Y-131675285D02*
X147188971Y-132008618D01*
X147188971Y-132008618D02*
X147188971Y-131865761D01*
X147188971Y-131865761D02*
X147236590Y-131770523D01*
X147236590Y-131770523D02*
X147284209Y-131722904D01*
X147284209Y-131722904D02*
X147379447Y-131675285D01*
X147379447Y-131675285D02*
X147617542Y-131675285D01*
X147617542Y-131675285D02*
X147712780Y-131722904D01*
X147712780Y-131722904D02*
X147760400Y-131770523D01*
X147760400Y-131770523D02*
X147808019Y-131865761D01*
X147808019Y-131865761D02*
X147808019Y-132151475D01*
X147808019Y-132151475D02*
X147760400Y-132246713D01*
X147760400Y-132246713D02*
X147712780Y-132294332D01*
%TO.C,J1*%
X135175666Y-157004819D02*
X135175666Y-157719104D01*
X135175666Y-157719104D02*
X135128047Y-157861961D01*
X135128047Y-157861961D02*
X135032809Y-157957200D01*
X135032809Y-157957200D02*
X134889952Y-158004819D01*
X134889952Y-158004819D02*
X134794714Y-158004819D01*
X136175666Y-158004819D02*
X135604238Y-158004819D01*
X135889952Y-158004819D02*
X135889952Y-157004819D01*
X135889952Y-157004819D02*
X135794714Y-157147676D01*
X135794714Y-157147676D02*
X135699476Y-157242914D01*
X135699476Y-157242914D02*
X135604238Y-157290533D01*
%TO.C,J4*%
X135429666Y-103918819D02*
X135429666Y-104633104D01*
X135429666Y-104633104D02*
X135382047Y-104775961D01*
X135382047Y-104775961D02*
X135286809Y-104871200D01*
X135286809Y-104871200D02*
X135143952Y-104918819D01*
X135143952Y-104918819D02*
X135048714Y-104918819D01*
X136334428Y-104252152D02*
X136334428Y-104918819D01*
X136096333Y-103871200D02*
X135858238Y-104585485D01*
X135858238Y-104585485D02*
X136477285Y-104585485D01*
%TO.C,J5*%
X135302666Y-78645819D02*
X135302666Y-79360104D01*
X135302666Y-79360104D02*
X135255047Y-79502961D01*
X135255047Y-79502961D02*
X135159809Y-79598200D01*
X135159809Y-79598200D02*
X135016952Y-79645819D01*
X135016952Y-79645819D02*
X134921714Y-79645819D01*
X136255047Y-78645819D02*
X135778857Y-78645819D01*
X135778857Y-78645819D02*
X135731238Y-79122009D01*
X135731238Y-79122009D02*
X135778857Y-79074390D01*
X135778857Y-79074390D02*
X135874095Y-79026771D01*
X135874095Y-79026771D02*
X136112190Y-79026771D01*
X136112190Y-79026771D02*
X136207428Y-79074390D01*
X136207428Y-79074390D02*
X136255047Y-79122009D01*
X136255047Y-79122009D02*
X136302666Y-79217247D01*
X136302666Y-79217247D02*
X136302666Y-79455342D01*
X136302666Y-79455342D02*
X136255047Y-79550580D01*
X136255047Y-79550580D02*
X136207428Y-79598200D01*
X136207428Y-79598200D02*
X136112190Y-79645819D01*
X136112190Y-79645819D02*
X135874095Y-79645819D01*
X135874095Y-79645819D02*
X135778857Y-79598200D01*
X135778857Y-79598200D02*
X135731238Y-79550580D01*
%TO.C,D2*%
X145946905Y-91490819D02*
X145946905Y-90490819D01*
X145946905Y-90490819D02*
X146185000Y-90490819D01*
X146185000Y-90490819D02*
X146327857Y-90538438D01*
X146327857Y-90538438D02*
X146423095Y-90633676D01*
X146423095Y-90633676D02*
X146470714Y-90728914D01*
X146470714Y-90728914D02*
X146518333Y-90919390D01*
X146518333Y-90919390D02*
X146518333Y-91062247D01*
X146518333Y-91062247D02*
X146470714Y-91252723D01*
X146470714Y-91252723D02*
X146423095Y-91347961D01*
X146423095Y-91347961D02*
X146327857Y-91443200D01*
X146327857Y-91443200D02*
X146185000Y-91490819D01*
X146185000Y-91490819D02*
X145946905Y-91490819D01*
X146899286Y-90586057D02*
X146946905Y-90538438D01*
X146946905Y-90538438D02*
X147042143Y-90490819D01*
X147042143Y-90490819D02*
X147280238Y-90490819D01*
X147280238Y-90490819D02*
X147375476Y-90538438D01*
X147375476Y-90538438D02*
X147423095Y-90586057D01*
X147423095Y-90586057D02*
X147470714Y-90681295D01*
X147470714Y-90681295D02*
X147470714Y-90776533D01*
X147470714Y-90776533D02*
X147423095Y-90919390D01*
X147423095Y-90919390D02*
X146851667Y-91490819D01*
X146851667Y-91490819D02*
X147470714Y-91490819D01*
%TO.C,R2*%
X147833419Y-107761066D02*
X147357228Y-108094399D01*
X147833419Y-108332494D02*
X146833419Y-108332494D01*
X146833419Y-108332494D02*
X146833419Y-107951542D01*
X146833419Y-107951542D02*
X146881038Y-107856304D01*
X146881038Y-107856304D02*
X146928657Y-107808685D01*
X146928657Y-107808685D02*
X147023895Y-107761066D01*
X147023895Y-107761066D02*
X147166752Y-107761066D01*
X147166752Y-107761066D02*
X147261990Y-107808685D01*
X147261990Y-107808685D02*
X147309609Y-107856304D01*
X147309609Y-107856304D02*
X147357228Y-107951542D01*
X147357228Y-107951542D02*
X147357228Y-108332494D01*
X146928657Y-107380113D02*
X146881038Y-107332494D01*
X146881038Y-107332494D02*
X146833419Y-107237256D01*
X146833419Y-107237256D02*
X146833419Y-106999161D01*
X146833419Y-106999161D02*
X146881038Y-106903923D01*
X146881038Y-106903923D02*
X146928657Y-106856304D01*
X146928657Y-106856304D02*
X147023895Y-106808685D01*
X147023895Y-106808685D02*
X147119133Y-106808685D01*
X147119133Y-106808685D02*
X147261990Y-106856304D01*
X147261990Y-106856304D02*
X147833419Y-107427732D01*
X147833419Y-107427732D02*
X147833419Y-106808685D01*
%TO.C,D5*%
X145941905Y-166166819D02*
X145941905Y-165166819D01*
X145941905Y-165166819D02*
X146180000Y-165166819D01*
X146180000Y-165166819D02*
X146322857Y-165214438D01*
X146322857Y-165214438D02*
X146418095Y-165309676D01*
X146418095Y-165309676D02*
X146465714Y-165404914D01*
X146465714Y-165404914D02*
X146513333Y-165595390D01*
X146513333Y-165595390D02*
X146513333Y-165738247D01*
X146513333Y-165738247D02*
X146465714Y-165928723D01*
X146465714Y-165928723D02*
X146418095Y-166023961D01*
X146418095Y-166023961D02*
X146322857Y-166119200D01*
X146322857Y-166119200D02*
X146180000Y-166166819D01*
X146180000Y-166166819D02*
X145941905Y-166166819D01*
X147418095Y-165166819D02*
X146941905Y-165166819D01*
X146941905Y-165166819D02*
X146894286Y-165643009D01*
X146894286Y-165643009D02*
X146941905Y-165595390D01*
X146941905Y-165595390D02*
X147037143Y-165547771D01*
X147037143Y-165547771D02*
X147275238Y-165547771D01*
X147275238Y-165547771D02*
X147370476Y-165595390D01*
X147370476Y-165595390D02*
X147418095Y-165643009D01*
X147418095Y-165643009D02*
X147465714Y-165738247D01*
X147465714Y-165738247D02*
X147465714Y-165976342D01*
X147465714Y-165976342D02*
X147418095Y-166071580D01*
X147418095Y-166071580D02*
X147370476Y-166119200D01*
X147370476Y-166119200D02*
X147275238Y-166166819D01*
X147275238Y-166166819D02*
X147037143Y-166166819D01*
X147037143Y-166166819D02*
X146941905Y-166119200D01*
X146941905Y-166119200D02*
X146894286Y-166071580D01*
D11*
%TO.C,R4*%
X144957800Y-153338400D02*
X144957800Y-154108400D01*
X146327800Y-154108400D02*
X143587800Y-154108400D01*
X143587800Y-154108400D02*
X143587800Y-160648400D01*
X146327800Y-160648400D02*
X146327800Y-154108400D01*
X143587800Y-160648400D02*
X146327800Y-160648400D01*
X144957800Y-161418400D02*
X144957800Y-160648400D01*
%TO.C,R1*%
X144957800Y-78637000D02*
X144957800Y-79407000D01*
X146327800Y-79407000D02*
X143587800Y-79407000D01*
X143587800Y-79407000D02*
X143587800Y-85947000D01*
X146327800Y-85947000D02*
X146327800Y-79407000D01*
X143587800Y-85947000D02*
X146327800Y-85947000D01*
X144957800Y-86717000D02*
X144957800Y-85947000D01*
%TO.C,D1*%
X144125000Y-68559000D02*
X144125000Y-71649000D01*
X149674999Y-70104462D02*
G75*
G03*
X144125001Y-68559170I-2989999J462D01*
G01*
X144125000Y-71648830D02*
G75*
G03*
X149675000Y-70103538I2560000J1544830D01*
G01*
X149185000Y-70104000D02*
G75*
G03*
X149185000Y-70104000I-2500000J0D01*
G01*
%TO.C,D3*%
X144120000Y-118343000D02*
X144120000Y-121433000D01*
X149669999Y-119888462D02*
G75*
G03*
X144120001Y-118343170I-2989999J462D01*
G01*
X144120000Y-121432830D02*
G75*
G03*
X149670000Y-119887538I2560000J1544830D01*
G01*
X149180000Y-119888000D02*
G75*
G03*
X149180000Y-119888000I-2500000J0D01*
G01*
%TO.C,R5*%
X140260200Y-167259000D02*
X139490200Y-167259000D01*
X139490200Y-168629000D02*
X139490200Y-165889000D01*
X139490200Y-165889000D02*
X132950200Y-165889000D01*
X132950200Y-168629000D02*
X139490200Y-168629000D01*
X132950200Y-165889000D02*
X132950200Y-168629000D01*
X132180200Y-167259000D02*
X132950200Y-167259000D01*
%TO.C,D4*%
X144125000Y-143235000D02*
X144125000Y-146325000D01*
X149674999Y-144780462D02*
G75*
G03*
X144125001Y-143235170I-2989999J462D01*
G01*
X144125000Y-146324830D02*
G75*
G03*
X149675000Y-144779538I2560000J1544830D01*
G01*
X149185000Y-144780000D02*
G75*
G03*
X149185000Y-144780000I-2500000J0D01*
G01*
%TO.C,R3*%
X144983200Y-128421000D02*
X144983200Y-129191000D01*
X146353200Y-129191000D02*
X143613200Y-129191000D01*
X143613200Y-129191000D02*
X143613200Y-135731000D01*
X146353200Y-135731000D02*
X146353200Y-129191000D01*
X143613200Y-135731000D02*
X146353200Y-135731000D01*
X144983200Y-136501000D02*
X144983200Y-135731000D01*
%TO.C,D2*%
X144125000Y-93451000D02*
X144125000Y-96541000D01*
X149674999Y-94996462D02*
G75*
G03*
X144125001Y-93451170I-2989999J462D01*
G01*
X144125000Y-96540830D02*
G75*
G03*
X149675000Y-94995538I2560000J1544830D01*
G01*
X149185000Y-94996000D02*
G75*
G03*
X149185000Y-94996000I-2500000J0D01*
G01*
%TO.C,R2*%
X145008600Y-103554400D02*
X145008600Y-104324400D01*
X146378600Y-104324400D02*
X143638600Y-104324400D01*
X143638600Y-104324400D02*
X143638600Y-110864400D01*
X146378600Y-110864400D02*
X146378600Y-104324400D01*
X143638600Y-110864400D02*
X146378600Y-110864400D01*
X145008600Y-111634400D02*
X145008600Y-110864400D01*
%TO.C,D5*%
X144120000Y-168127000D02*
X144120000Y-171217000D01*
X149669999Y-169672462D02*
G75*
G03*
X144120001Y-168127170I-2989999J462D01*
G01*
X144120000Y-171216830D02*
G75*
G03*
X149670000Y-169671538I2560000J1544830D01*
G01*
X149180000Y-169672000D02*
G75*
G03*
X149180000Y-169672000I-2500000J0D01*
G01*
%TD*%
M02*
