%TF.GenerationSoftware,KiCad,Pcbnew,7.0.5*%
%TF.CreationDate,2023-07-09T21:35:34-04:00*%
%TF.ProjectId,Guitar_Hero_PCB_LEDs,47756974-6172-45f4-9865-726f5f504342,v01*%
%TF.SameCoordinates,Original*%
%TF.FileFunction,Copper,L2,Bot*%
%TF.FilePolarity,Positive*%
%FSLAX46Y46*%
G04 Gerber Fmt 4.6, Leading zero omitted, Abs format (unit mm)*
G04 Created by KiCad (PCBNEW 7.0.5) date 2023-07-09 21:35:34*
%MOMM*%
%LPD*%
G01*
G04 APERTURE LIST*
G04 Aperture macros list*
%AMRoundRect*
0 Rectangle with rounded corners*
0 $1 Rounding radius*
0 $2 $3 $4 $5 $6 $7 $8 $9 X,Y pos of 4 corners*
0 Add a 4 corners polygon primitive as box body*
4,1,4,$2,$3,$4,$5,$6,$7,$8,$9,$2,$3,0*
0 Add four circle primitives for the rounded corners*
1,1,$1+$1,$2,$3*
1,1,$1+$1,$4,$5*
1,1,$1+$1,$6,$7*
1,1,$1+$1,$8,$9*
0 Add four rect primitives between the rounded corners*
20,1,$1+$1,$2,$3,$4,$5,0*
20,1,$1+$1,$4,$5,$6,$7,0*
20,1,$1+$1,$6,$7,$8,$9,0*
20,1,$1+$1,$8,$9,$2,$3,0*%
G04 Aperture macros list end*
%TA.AperFunction,ComponentPad*%
%ADD10RoundRect,0.249999X-1.025001X-1.025001X1.025001X-1.025001X1.025001X1.025001X-1.025001X1.025001X0*%
%TD*%
%TA.AperFunction,ComponentPad*%
%ADD11C,1.600000*%
%TD*%
%TA.AperFunction,ComponentPad*%
%ADD12O,1.600000X1.600000*%
%TD*%
%TA.AperFunction,ComponentPad*%
%ADD13R,1.800000X1.800000*%
%TD*%
%TA.AperFunction,ComponentPad*%
%ADD14C,1.800000*%
%TD*%
%TA.AperFunction,Conductor*%
%ADD15C,0.254000*%
%TD*%
G04 APERTURE END LIST*
D10*
%TO.P,J6,1,Pin_1*%
%TO.N,Net-(D1-K)*%
X141224000Y-174879000D03*
%TD*%
D11*
%TO.P,R4,1*%
%TO.N,Net-(D4-A)*%
X144957800Y-152298400D03*
D12*
%TO.P,R4,2*%
%TO.N,Net-(J2-Pin_1)*%
X144957800Y-162458400D03*
%TD*%
D11*
%TO.P,R1,1*%
%TO.N,Net-(D1-A)*%
X144957800Y-77597000D03*
D12*
%TO.P,R1,2*%
%TO.N,Net-(J5-Pin_1)*%
X144957800Y-87757000D03*
%TD*%
D13*
%TO.P,D1,1,K*%
%TO.N,Net-(D1-K)*%
X145415000Y-70104000D03*
D14*
%TO.P,D1,2,A*%
%TO.N,Net-(D1-A)*%
X147955000Y-70104000D03*
%TD*%
D10*
%TO.P,J2,1,Pin_1*%
%TO.N,Net-(J2-Pin_1)*%
X135636000Y-153797000D03*
%TD*%
D13*
%TO.P,D3,1,K*%
%TO.N,Net-(D1-K)*%
X145410000Y-119888000D03*
D14*
%TO.P,D3,2,A*%
%TO.N,Net-(D3-A)*%
X147950000Y-119888000D03*
%TD*%
D11*
%TO.P,R5,1*%
%TO.N,Net-(D5-A)*%
X141300200Y-167259000D03*
D12*
%TO.P,R5,2*%
%TO.N,Net-(J1-Pin_1)*%
X131140200Y-167259000D03*
%TD*%
D13*
%TO.P,D4,1,K*%
%TO.N,Net-(D1-K)*%
X145415000Y-144780000D03*
D14*
%TO.P,D4,2,A*%
%TO.N,Net-(D4-A)*%
X147955000Y-144780000D03*
%TD*%
D10*
%TO.P,J3,1,Pin_1*%
%TO.N,Net-(J3-Pin_1)*%
X135509000Y-132334000D03*
%TD*%
D11*
%TO.P,R3,1*%
%TO.N,Net-(D3-A)*%
X144983200Y-127381000D03*
D12*
%TO.P,R3,2*%
%TO.N,Net-(J3-Pin_1)*%
X144983200Y-137541000D03*
%TD*%
D10*
%TO.P,J1,1,Pin_1*%
%TO.N,Net-(J1-Pin_1)*%
X135509000Y-160020000D03*
%TD*%
%TO.P,J4,1,Pin_1*%
%TO.N,Net-(J4-Pin_1)*%
X135763000Y-106934000D03*
%TD*%
%TO.P,J5,1,Pin_1*%
%TO.N,Net-(J5-Pin_1)*%
X135636000Y-81661000D03*
%TD*%
D13*
%TO.P,D2,1,K*%
%TO.N,Net-(D1-K)*%
X145415000Y-94996000D03*
D14*
%TO.P,D2,2,A*%
%TO.N,Net-(D2-A)*%
X147955000Y-94996000D03*
%TD*%
D11*
%TO.P,R2,1*%
%TO.N,Net-(D2-A)*%
X145008600Y-102514400D03*
D12*
%TO.P,R2,2*%
%TO.N,Net-(J4-Pin_1)*%
X145008600Y-112674400D03*
%TD*%
D13*
%TO.P,D5,1,K*%
%TO.N,Net-(D1-K)*%
X145410000Y-169672000D03*
D14*
%TO.P,D5,2,A*%
%TO.N,Net-(D5-A)*%
X147950000Y-169672000D03*
%TD*%
D15*
%TO.N,Net-(D1-K)*%
X128701800Y-94792800D02*
X128701800Y-119938800D01*
X128701800Y-70713600D02*
X128701800Y-94792800D01*
X129311400Y-70104000D02*
X128701800Y-70713600D01*
X142214600Y-169672000D02*
X141224000Y-170662600D01*
X128701800Y-144627600D02*
X128701800Y-173278800D01*
X130302000Y-174879000D02*
X141224000Y-174879000D01*
X145410000Y-119888000D02*
X128752600Y-119888000D01*
X145410000Y-169672000D02*
X142214600Y-169672000D01*
X128854200Y-144780000D02*
X128701800Y-144627600D01*
X145415000Y-94996000D02*
X128905000Y-94996000D01*
X128752600Y-119888000D02*
X128701800Y-119938800D01*
X145415000Y-144780000D02*
X128854200Y-144780000D01*
X128701800Y-173278800D02*
X130302000Y-174879000D01*
X141224000Y-170662600D02*
X141224000Y-174879000D01*
X128701800Y-119938800D02*
X128701800Y-144627600D01*
X145415000Y-70104000D02*
X129311400Y-70104000D01*
X128905000Y-94996000D02*
X128701800Y-94792800D01*
%TD*%
M02*
