M48
; DRILL file {KiCad 7.0.5} date Sun Jul  9 21:29:18 2023
; FORMAT={-:-/ absolute / inch / decimal}
; #@! TF.CreationDate,2023-07-09T21:29:18-04:00
; #@! TF.GenerationSoftware,Kicad,Pcbnew,7.0.5
; #@! TF.FileFunction,NonPlated,1,2,NPTH
FMAT,2
INCH
; #@! TA.AperFunction,NonPlated,NPTH,ComponentDrill
T1C0.0390
; #@! TA.AperFunction,NonPlated,NPTH,ComponentDrill
T2C0.0670
; #@! TA.AperFunction,NonPlated,NPTH,ComponentDrill
T3C0.1350
%
G90
G05
T1
X5.5255Y-2.5924
X5.527Y-3.57
X5.527Y-4.55
X5.527Y-5.5296
X5.527Y-6.5096
T2
X5.1035Y-2.7577
X5.105Y-3.7354
X5.105Y-4.7154
X5.105Y-5.695
X5.105Y-6.675
X5.5365Y-2.7577
X5.5381Y-3.7354
X5.5381Y-4.7154
X5.5381Y-5.695
X5.5381Y-6.675
T3
X5.32Y-2.7577
X5.3215Y-3.7354
X5.3215Y-4.7154
X5.3215Y-5.695
X5.3215Y-6.675
T0
M30
