%TF.GenerationSoftware,KiCad,Pcbnew,7.0.5*%
%TF.CreationDate,2023-11-24T16:41:21-05:00*%
%TF.ProjectId,Guitar_Hero_PCBs,47756974-6172-45f4-9865-726f5f504342,rev?*%
%TF.SameCoordinates,Original*%
%TF.FileFunction,Copper,L1,Top*%
%TF.FilePolarity,Positive*%
%FSLAX46Y46*%
G04 Gerber Fmt 4.6, Leading zero omitted, Abs format (unit mm)*
G04 Created by KiCad (PCBNEW 7.0.5) date 2023-11-24 16:41:21*
%MOMM*%
%LPD*%
G01*
G04 APERTURE LIST*
G04 Aperture macros list*
%AMRoundRect*
0 Rectangle with rounded corners*
0 $1 Rounding radius*
0 $2 $3 $4 $5 $6 $7 $8 $9 X,Y pos of 4 corners*
0 Add a 4 corners polygon primitive as box body*
4,1,4,$2,$3,$4,$5,$6,$7,$8,$9,$2,$3,0*
0 Add four circle primitives for the rounded corners*
1,1,$1+$1,$2,$3*
1,1,$1+$1,$4,$5*
1,1,$1+$1,$6,$7*
1,1,$1+$1,$8,$9*
0 Add four rect primitives between the rounded corners*
20,1,$1+$1,$2,$3,$4,$5,0*
20,1,$1+$1,$4,$5,$6,$7,0*
20,1,$1+$1,$6,$7,$8,$9,0*
20,1,$1+$1,$8,$9,$2,$3,0*%
G04 Aperture macros list end*
%TA.AperFunction,ComponentPad*%
%ADD10RoundRect,0.249999X-1.025001X-1.025001X1.025001X-1.025001X1.025001X1.025001X-1.025001X1.025001X0*%
%TD*%
%TA.AperFunction,ComponentPad*%
%ADD11C,1.600000*%
%TD*%
%TA.AperFunction,ComponentPad*%
%ADD12O,1.600000X1.600000*%
%TD*%
%TA.AperFunction,ComponentPad*%
%ADD13C,2.032000*%
%TD*%
%TA.AperFunction,ComponentPad*%
%ADD14R,1.800000X1.800000*%
%TD*%
%TA.AperFunction,ComponentPad*%
%ADD15C,1.800000*%
%TD*%
%TA.AperFunction,Conductor*%
%ADD16C,0.254000*%
%TD*%
%TA.AperFunction,Conductor*%
%ADD17C,0.250000*%
%TD*%
G04 APERTURE END LIST*
D10*
%TO.P,J1,1,Pin_1*%
%TO.N,N/C*%
X116255800Y-55499000D03*
%TD*%
D11*
%TO.P,R5,1*%
%TO.N,N/C*%
X123723400Y-134823200D03*
D12*
%TO.P,R5,2*%
X123723400Y-124663200D03*
%TD*%
D10*
%TO.P,J9,1,Pin_1*%
%TO.N,N/C*%
X112572800Y-130200527D03*
%TD*%
D11*
%TO.P,R2,1*%
%TO.N,N/C*%
X123968764Y-75514200D03*
D12*
%TO.P,R2,2*%
X123968764Y-85674200D03*
%TD*%
D13*
%TO.P,SW4,1,A*%
%TO.N,N/C*%
X112484800Y-123654527D03*
%TO.P,SW4,2,B*%
X107484800Y-121554527D03*
%TD*%
D10*
%TO.P,J2,1,Pin_1*%
%TO.N,N/C*%
X116281200Y-80416400D03*
%TD*%
%TO.P,J10,1,Pin_1*%
%TO.N,N/C*%
X107492800Y-104546527D03*
%TD*%
D13*
%TO.P,SW3,1,A*%
%TO.N,N/C*%
X112484800Y-98771527D03*
%TO.P,SW3,2,B*%
X107484800Y-96671527D03*
%TD*%
D10*
%TO.P,J8,1,Pin_1*%
%TO.N,N/C*%
X107492800Y-130200527D03*
%TD*%
%TO.P,J11,1,Pin_1*%
%TO.N,N/C*%
X107492800Y-80416527D03*
%TD*%
D14*
%TO.P,D2,1,K*%
%TO.N,N/C*%
X122597164Y-67945000D03*
D15*
%TO.P,D2,2,A*%
X125137164Y-67945000D03*
%TD*%
D13*
%TO.P,SW2,1,A*%
%TO.N,N/C*%
X112484800Y-73879527D03*
%TO.P,SW2,2,B*%
X107484800Y-71779527D03*
%TD*%
D11*
%TO.P,R4,1*%
%TO.N,N/C*%
X122174000Y-101396800D03*
D12*
%TO.P,R4,2*%
X122174000Y-111556800D03*
%TD*%
D14*
%TO.P,D4,1,K*%
%TO.N,N/C*%
X122597164Y-117729000D03*
D15*
%TO.P,D4,2,A*%
X125137164Y-117729000D03*
%TD*%
D10*
%TO.P,J12,1,Pin_1*%
%TO.N,N/C*%
X107492800Y-55524527D03*
%TD*%
D13*
%TO.P,SW1,1,A*%
%TO.N,N/C*%
X112445800Y-49047527D03*
%TO.P,SW1,2,B*%
X107445800Y-46947527D03*
%TD*%
D10*
%TO.P,J5,1,Pin_1*%
%TO.N,N/C*%
X118135400Y-130276600D03*
%TD*%
%TO.P,J3,1,Pin_1*%
%TO.N,N/C*%
X117627400Y-102565200D03*
%TD*%
D13*
%TO.P,SW5,1,A*%
%TO.N,N/C*%
X112484800Y-148546527D03*
%TO.P,SW5,2,B*%
X107484800Y-146446527D03*
%TD*%
D14*
%TO.P,D3,1,K*%
%TO.N,N/C*%
X122592164Y-92837000D03*
D15*
%TO.P,D3,2,A*%
X125132164Y-92837000D03*
%TD*%
D11*
%TO.P,R3,1*%
%TO.N,N/C*%
X125958600Y-98374200D03*
D12*
%TO.P,R3,2*%
X125958600Y-108534200D03*
%TD*%
D14*
%TO.P,D1,1,K*%
%TO.N,N/C*%
X122597164Y-43053000D03*
D15*
%TO.P,D1,2,A*%
X125137164Y-43053000D03*
%TD*%
D10*
%TO.P,J7,1,Pin_1*%
%TO.N,N/C*%
X123774200Y-148056600D03*
%TD*%
%TO.P,J4,1,Pin_1*%
%TO.N,N/C*%
X117678200Y-107721400D03*
%TD*%
D14*
%TO.P,D5,1,K*%
%TO.N,N/C*%
X122592164Y-142621000D03*
D15*
%TO.P,D5,2,A*%
X125132164Y-142621000D03*
%TD*%
D11*
%TO.P,R1,1*%
%TO.N,N/C*%
X123968764Y-50266600D03*
D12*
%TO.P,R1,2*%
X123968764Y-60426600D03*
%TD*%
D16*
%TO.N,*%
X107492800Y-130200527D02*
X107492800Y-140182727D01*
D17*
X118135400Y-130276600D02*
X120878600Y-127533400D01*
X125958600Y-93663436D02*
X125132164Y-92837000D01*
X122174000Y-111556800D02*
X122174000Y-114765836D01*
X122174000Y-114765836D02*
X125137164Y-117729000D01*
X122174000Y-103225600D02*
X122174000Y-101396800D01*
D16*
X107484800Y-71779527D02*
X107484800Y-80408527D01*
X107484800Y-96671527D02*
X107484800Y-104538527D01*
D17*
X117678200Y-107721400D02*
X122174000Y-103225600D01*
X125137164Y-47252636D02*
X125137164Y-43053000D01*
X125132164Y-139051364D02*
X125132164Y-142621000D01*
X121183400Y-60426600D02*
X123968764Y-60426600D01*
D16*
X107484800Y-104538527D02*
X107492800Y-104546527D01*
D17*
X123723400Y-134823200D02*
X123723400Y-137642600D01*
D16*
X109245400Y-143383127D02*
X107484800Y-145143727D01*
D17*
X125958600Y-98374200D02*
X125958600Y-93663436D01*
X123723400Y-137642600D02*
X125132164Y-139051364D01*
D16*
X107484800Y-145143727D02*
X107484800Y-146446527D01*
X109245400Y-141935327D02*
X109245400Y-143383127D01*
D17*
X121208800Y-124663200D02*
X123723400Y-124663200D01*
X121386600Y-98806000D02*
X123266200Y-98806000D01*
X125137164Y-71712836D02*
X125137164Y-67945000D01*
X116281200Y-80416400D02*
X121539000Y-85674200D01*
D16*
X107492800Y-140182727D02*
X109245400Y-141935327D01*
D17*
X125958600Y-101498400D02*
X125958600Y-108534200D01*
X123968764Y-72881236D02*
X125137164Y-71712836D01*
D16*
X107484800Y-121554527D02*
X107484800Y-125112527D01*
D17*
X123968764Y-50266600D02*
X123968764Y-48421036D01*
X117627400Y-102565200D02*
X121386600Y-98806000D01*
X123266200Y-98806000D02*
X125958600Y-101498400D01*
X123968764Y-48421036D02*
X125137164Y-47252636D01*
D16*
X107484800Y-80408527D02*
X107492800Y-80416527D01*
X107445800Y-46947527D02*
X107445800Y-55477527D01*
D17*
X120878600Y-124993400D02*
X121208800Y-124663200D01*
X123968764Y-75514200D02*
X123968764Y-72881236D01*
X121539000Y-85674200D02*
X123968764Y-85674200D01*
D16*
X107484800Y-125112527D02*
X112572800Y-130200527D01*
X107445800Y-55477527D02*
X107492800Y-55524527D01*
D17*
X120878600Y-127533400D02*
X120878600Y-124993400D01*
X116255800Y-55499000D02*
X121183400Y-60426600D01*
%TD*%
M02*
