M48
; DRILL file {KiCad 7.0.5} date Fri Nov 24 16:41:30 2023
; FORMAT={-:-/ absolute / inch / decimal}
; #@! TF.CreationDate,2023-11-24T16:41:30-05:00
; #@! TF.GenerationSoftware,Kicad,Pcbnew,7.0.5
; #@! TF.FileFunction,Plated,1,2,PTH
FMAT,2
INCH
; #@! TA.AperFunction,Plated,PTH,ComponentDrill
T1C0.0315
; #@! TA.AperFunction,Plated,PTH,ComponentDrill
T2C0.0354
; #@! TA.AperFunction,Plated,PTH,ComponentDrill
T3C0.0500
; #@! TA.AperFunction,Plated,PTH,ComponentDrill
T4C0.0610
%
G90
G05
T1
X4.81Y-3.992
X4.81Y-4.392
X4.871Y-4.908
X4.871Y-5.308
X4.8807Y-1.979
X4.8807Y-2.379
X4.8807Y-2.973
X4.8807Y-3.373
X4.959Y-3.873
X4.959Y-4.273
T2
X4.8265Y-3.655
X4.8265Y-5.615
X4.8267Y-1.695
X4.8267Y-2.675
X4.8267Y-4.635
X4.9265Y-3.655
X4.9265Y-5.615
X4.9267Y-1.695
X4.9267Y-2.675
X4.9267Y-4.635
T3
X4.2301Y-1.8483
X4.2317Y-2.826
X4.2317Y-3.806
X4.2317Y-4.7856
X4.2317Y-5.7656
X4.427Y-1.931
X4.4285Y-2.9086
X4.4285Y-3.8886
X4.4285Y-4.8683
X4.4285Y-5.8483
T4
X4.232Y-2.186
X4.232Y-3.166
X4.232Y-4.116
X4.232Y-5.126
X4.432Y-5.126
X4.577Y-2.185
X4.578Y-3.166
X4.631Y-4.038
X4.633Y-4.241
X4.651Y-5.129
X4.873Y-5.829
T0
M30
